<?xml version="1.0" encoding="iso-8859-1"?>
<!-- Generator: Adobe Illustrator 19.0.0, SVG Export Plug-In . SVG Version: 6.00 Build 0)  -->
<svg version="1.1" id="Capa_1" xmlns="http://www.w3.org/2000/svg" xmlns:xlink="http://www.w3.org/1999/xlink" x="0px" y="0px"
	 viewBox="0 0 512 512" style="enable-background:new 0 0 512 512;" xml:space="preserve">
<g>
	<g>
		<path d="M256,0c-41.353,0-75,34.647-75,76c0,41.353,33.647,75,75,75c41.353,0,75-33.647,75-75C331,34.647,297.353,0,256,0z" fill="#B8B8B8"/>
	</g>
</g>
<g>
	<g>
		<path d="M451,333.763v-36.367C451,266.298,425.702,241,394.604,241H361v-15c0-29.392-12.217-55.92-31.749-75
			c-18.939,18.499-44.753,30-73.251,30c-28.498,0-54.313-11.501-73.251-30C163.217,170.08,151,196.608,151,226v15h-33.604
			C86.298,241,61,266.298,61,297.396v36.367C43.578,339.976,31,356.47,31,376c0,24.814,20.186,45,45,45s45-20.186,45-45
			c0-19.53-12.578-36.024-30-42.237v-36.367C91,282.836,102.836,271,117.396,271c45.472,0,77.272,0,123.604,0v62.763
			c-17.422,6.213-30,22.707-30,42.237c0,24.814,20.186,45,45,45c24.814,0,45-20.186,45-45c0-19.53-12.578-36.024-30-42.237V271
			c46.414,0,77.688,0,123.604,0c14.56,0,26.396,11.836,26.396,26.396v36.367c-17.422,6.213-30,22.707-30,42.237
			c0,24.814,20.186,45,45,45c24.814,0,45-20.186,45-45C481,356.47,468.422,339.976,451,333.763z" fill="#B8B8B8"/>
	</g>
</g>
<g>
	<g>
		<path d="M495.617,421c-13.705,18.104-35.213,30-59.617,30s-45.912-11.896-59.617-30C366.865,433.574,361,449.052,361,466v31
			c0,8.291,6.709,15,15,15h120c8.291,0,16-6.709,16-15v-31C512,449.052,505.135,433.574,495.617,421z" fill="#B8B8B8"/>
	</g>
</g>
<g>
	<g>
		<path d="M315.617,421c-13.705,18.104-35.213,30-59.617,30s-45.912-11.896-59.617-30C186.865,433.574,181,449.052,181,466v31
			c0,8.291,6.709,15,15,15h120c8.291,0,15-6.709,15-15v-31C331,449.052,325.135,433.574,315.617,421z" fill="#B8B8B8"/>
	</g>
</g>
<g>
	<g>
		<path d="M135.617,421c-13.705,18.104-35.213,30-59.617,30s-45.912-11.896-59.617-30C6.865,433.574,0,449.052,0,466v31
			c0,8.291,7.709,15,16,15h120c8.291,0,15-6.709,15-15v-31C151,449.052,145.135,433.574,135.617,421z" fill="#B8B8B8"/>
	</g>
</g>
<g>
</g>
<g>
</g>
<g>
</g>
<g>
</g>
<g>
</g>
<g>
</g>
<g>
</g>
<g>
</g>
<g>
</g>
<g>
</g>
<g>
</g>
<g>
</g>
<g>
</g>
<g>
</g>
<g>
</g>
</svg>
