<?xml version="1.0" standalone="no"?>
<!DOCTYPE svg PUBLIC "-//W3C//DTD SVG 20010904//EN"
 "http://www.w3.org/TR/2001/REC-SVG-20010904/DTD/svg10.dtd">
<svg version="1.0" xmlns="http://www.w3.org/2000/svg"
 width="908.000000pt" height="237.000000pt" viewBox="0 0 908.000000 237.000000"
 preserveAspectRatio="xMidYMid meet">
<metadata>
Created by potrace 1.15, written by Peter Selinger 2001-2017
</metadata>
<g transform="translate(0.000000,237.000000) scale(0.100000,-0.100000)"
fill="#000000" stroke="none">
<path d="M1070 2040 c-52 -4 -112 -15 -134 -24 -21 -9 -45 -16 -54 -16 -15 0
-112 -41 -142 -60 -8 -5 -28 -17 -45 -26 -66 -37 -159 -121 -213 -193 -56 -75
-111 -174 -112 -199 0 -7 -7 -26 -15 -42 -8 -16 -20 -63 -26 -105 -7 -47 -17
-79 -25 -82 -20 -7 -20 -239 0 -246 8 -3 18 -35 25 -82 6 -42 17 -88 25 -103
7 -15 17 -42 21 -59 3 -18 11 -35 16 -39 5 -3 16 -21 24 -41 66 -158 327 -358
515 -393 30 -6 60 -17 66 -25 16 -22 379 -22 387 -1 3 8 30 19 59 25 89 19
212 87 288 160 79 77 83 100 22 146 -21 14 -79 58 -131 96 -103 76 -116 78
-161 30 -51 -54 -102 -84 -182 -107 -94 -27 -140 -30 -200 -10 -24 8 -55 17
-70 20 -63 14 -170 101 -224 182 -19 28 -34 54 -34 58 0 4 -9 27 -20 51 -25
56 -39 201 -28 308 19 190 129 338 308 415 47 20 71 24 165 24 101 0 115 -2
175 -29 36 -17 80 -44 96 -61 32 -32 66 -34 89 -7 6 7 56 49 112 94 55 45 104
89 108 98 22 59 -196 199 -360 233 -66 13 -224 18 -325 10z"/>
<path d="M4190 2040 c-144 -10 -292 -62 -420 -146 -65 -42 -159 -133 -196
-188 -10 -16 -27 -41 -37 -55 -9 -14 -24 -42 -32 -61 -9 -19 -22 -47 -30 -62
-8 -14 -15 -33 -15 -41 0 -8 -10 -43 -21 -78 -18 -54 -22 -90 -23 -229 -1
-144 2 -176 23 -250 45 -164 151 -339 259 -427 60 -49 125 -93 138 -93 6 0 15
-5 21 -11 18 -18 123 -58 186 -70 32 -7 61 -18 64 -25 8 -21 378 -20 386 0 3
8 30 20 59 26 49 11 87 28 197 88 23 12 68 50 100 82 74 76 72 88 -21 155 -38
28 -93 68 -121 91 -75 59 -96 62 -138 18 -54 -57 -113 -91 -192 -113 -93 -27
-125 -26 -223 2 -110 33 -164 68 -236 159 -69 86 -99 162 -119 293 -15 102 14
256 65 345 50 87 148 187 202 206 11 4 39 16 64 27 66 30 236 29 302 -1 26
-12 50 -22 54 -22 3 0 29 -18 56 -40 28 -22 54 -40 58 -40 4 0 16 8 28 18 11
9 60 48 109 86 48 38 98 82 111 98 l24 28 -24 28 c-30 37 -107 98 -144 113
-16 7 -36 18 -44 24 -43 33 -274 80 -360 73 -8 -1 -58 -4 -110 -8z"/>
<path d="M7285 2040 c-104 -9 -251 -54 -325 -101 -8 -5 -26 -15 -40 -21 -43
-21 -166 -125 -207 -175 -65 -80 -93 -129 -148 -258 -22 -52 -45 -200 -45
-295 0 -97 23 -258 43 -296 8 -16 18 -43 21 -61 4 -17 14 -37 22 -44 8 -6 14
-16 14 -22 0 -21 76 -124 136 -184 104 -103 256 -186 389 -212 28 -6 66 -16
85 -22 49 -17 1129 -26 1182 -9 l38 11 0 128 c0 125 -1 129 -22 135 -13 3
-102 6 -199 6 -133 0 -180 3 -194 14 -18 13 -17 14 11 29 41 21 140 122 167
171 12 23 36 77 52 121 29 78 30 85 29 250 -1 156 -3 176 -27 248 -36 105
-102 223 -161 292 -51 58 -148 140 -201 169 -16 9 -37 20 -45 25 -78 48 -219
91 -335 101 -110 10 -110 10 -240 0z m302 -365 c284 -115 410 -438 278 -708
-67 -137 -181 -231 -331 -272 -86 -24 -160 -24 -250 1 -152 41 -262 136 -343
299 -24 47 -26 60 -26 200 0 123 3 155 16 175 10 14 20 36 24 50 9 29 72 115
106 146 78 69 182 122 269 135 74 12 194 -1 257 -26z"/>
<path d="M2047 1992 c-16 -17 -17 -89 -17 -830 0 -792 0 -812 19 -822 30 -15
1133 -14 1149 2 13 13 18 281 6 312 -5 14 -49 16 -385 16 -366 0 -380 1 -399
20 -18 18 -20 33 -20 160 0 127 2 140 19 150 13 6 143 10 354 10 296 0 336 2
341 16 8 20 8 298 0 318 -5 14 -45 16 -343 16 -255 0 -341 3 -354 13 -15 11
-17 29 -15 147 l3 135 372 5 c204 3 375 9 380 13 4 5 10 75 11 156 3 127 1
150 -13 164 -15 15 -66 17 -554 17 -508 0 -539 -1 -554 -18z"/>
<path d="M5165 2003 c-11 -3 -23 -10 -27 -17 -4 -6 -8 -377 -8 -824 0 -765 1
-813 18 -820 9 -4 270 -7 579 -7 447 0 565 3 575 13 16 16 24 279 9 302 -9 13
-68 16 -400 20 -214 3 -393 9 -398 13 -14 14 -16 296 -3 313 10 12 68 14 350
14 314 0 338 1 353 18 14 15 17 42 17 159 0 123 -2 142 -18 156 -17 15 -56 17
-354 17 -274 0 -338 3 -347 14 -8 9 -11 57 -9 147 l3 134 370 5 c204 3 376 9
383 13 9 6 12 50 12 161 l0 153 -25 11 c-19 9 -170 12 -543 11 -284 -1 -526
-4 -537 -6z"/>
</g>
</svg>
