<?xml version="1.0" standalone="no"?>
<!DOCTYPE svg PUBLIC "-//W3C//DTD SVG 20010904//EN"
 "http://www.w3.org/TR/2001/REC-SVG-20010904/DTD/svg10.dtd">
<svg version="1.0" xmlns="http://www.w3.org/2000/svg"
 width="423.000000pt" height="475.000000pt" viewBox="0 0 423.000000 475.000000"
 preserveAspectRatio="xMidYMid meet">
<metadata>
Created by potrace 1.14, written by Peter Selinger 2001-2017
</metadata>
<g transform="translate(0.000000,475.000000) scale(0.100000,-0.100000)"
fill="#000000" stroke="none">
<path d="M2660 4411 c-137 -45 -215 -150 -214 -286 1 -89 28 -149 95 -209 93
-84 221 -99 329 -40 62 33 95 70 128 143 21 45 24 64 20 125 -8 114 -69 204
-167 249 -49 21 -151 31 -191 18z"/>
<path d="M1858 3870 c-359 -41 -679 -225 -895 -514 -172 -231 -253 -477 -253
-769 0 -85 6 -181 15 -233 46 -261 183 -514 381 -703 253 -242 556 -361 921
-361 201 0 296 -28 329 -99 23 -48 8 -104 -47 -173 -84 -107 -119 -207 -119
-343 0 -103 16 -170 63 -260 64 -121 210 -233 347 -266 30 -7 94 -12 141 -12
247 3 462 183 514 428 18 88 18 132 0 218 -45 212 -211 378 -424 423 -91 18
-111 27 -140 57 -17 19 -23 37 -23 65 1 71 44 134 202 297 202 210 285 338
355 548 185 559 -26 1170 -515 1490 -144 94 -307 160 -469 191 -101 19 -286
27 -383 16z m338 -674 c160 -51 295 -165 374 -317 50 -96 71 -187 71 -303 -1
-179 -59 -314 -191 -446 -131 -132 -269 -190 -450 -190 -254 0 -470 136 -580
365 -49 103 -64 169 -64 280 1 177 62 323 189 451 92 92 200 153 320 179 99
21 228 13 331 -19z m567 -2367 c125 -34 165 -186 71 -269 -107 -94 -264 -27
-264 113 0 77 35 127 107 153 47 16 40 16 86 3z"/>
<path d="M1879 2966 c-116 -45 -190 -110 -241 -214 -31 -62 -33 -74 -33 -167
0 -97 2 -104 38 -177 173 -351 683 -272 750 115 29 170 -69 350 -230 425 -48
21 -75 27 -153 29 -63 2 -107 -2 -131 -11z"/>
<path d="M565 3821 c-206 -96 -137 -401 91 -401 55 0 135 49 169 104 104 171
-79 381 -260 297z"/>
<path d="M3645 2709 c-81 -23 -119 -122 -73 -189 28 -42 61 -60 108 -60 76 0
139 74 125 146 -7 40 -47 90 -78 99 -42 12 -52 13 -82 4z"/>
<path d="M577 1639 c-94 -22 -192 -93 -245 -177 -104 -163 -76 -372 68 -505
83 -77 147 -101 270 -102 87 0 101 3 162 32 190 90 281 300 213 493 -65 187
-277 304 -468 259z"/>
</g>
</svg>
