<?xml version="1.0" encoding="UTF-8"?>
<!DOCTYPE svg PUBLIC "-//W3C//DTD SVG 1.1//EN" "http://www.w3.org/Graphics/SVG/1.1/DTD/svg11.dtd">
<!-- Creator: CorelDRAW X7 -->
<svg xmlns="http://www.w3.org/2000/svg" xml:space="preserve" width="776px" height="850px" version="1.1" style="shape-rendering:geometricPrecision; text-rendering:geometricPrecision; image-rendering:optimizeQuality; fill-rule:evenodd; clip-rule:evenodd"
viewBox="0 0 776 850"
 xmlns:xlink="http://www.w3.org/1999/xlink">
 <defs>
  <style type="text/css">
   <![CDATA[
    .str0 {stroke:white;stroke-width:16.0007}
    .fil1 {fill:none}
    .fil0 {fill:#9ED5C0}
   ]]>
  </style>
 </defs>
 <g id="Capa_x0020_1">
  <metadata id="CorelCorpID_0Corel-Layer"/>
  <polygon class="fil0" points="388,24 567,125 746,226 746,428 746,629 567,730 388,831 209,730 31,629 31,428 31,226 209,125 "/>
  <polygon class="fil1 str0" points="386,107 534,190 681,273 681,440 681,606 534,689 386,773 239,689 91,606 91,440 91,273 239,190 "/>
  <polygon class="fil1 str0" points="388,358 476,510 564,663 388,663 211,663 300,510 "/>
  <polygon class="fil1 str0" points="388,519 300,366 211,213 388,213 564,213 476,366 "/>
 </g>
</svg>
