<svg xmlns="http://www.w3.org/2000/svg" viewBox="321 9668.5 74.238 74.238">
  <defs>
    <style>
      .cls-1 {
        fill: #f2f2f2;
      }
    </style>
  </defs>
  <g id="play" transform="translate(321 9668.5)">
    <g id="Group_5" data-name="Group 5">
      <g id="Group_4" data-name="Group 4">
        <path id="Path_9" data-name="Path 9" class="cls-1" d="M37.119,0A37.119,37.119,0,1,0,74.238,37.119,37.12,37.12,0,0,0,37.119,0ZM53.634,38.6,34.446,53.758a3.3,3.3,0,0,1-3.89,0l.01-.01a1.945,1.945,0,0,1-.871-1.554V21.955a1.952,1.952,0,0,1,.836-1.544l.025-.025a3.313,3.313,0,0,1,3.89,0L53.53,35.505l.1.055A1.836,1.836,0,0,1,53.634,38.6Z"/>
      </g>
    </g>
  </g>
</svg>
